%TF.GenerationSoftware,KiCad,Pcbnew,(6.0.9)*%
%TF.CreationDate,2022-11-21T20:55:40-06:00*%
%TF.ProjectId,solar-test,736f6c61-722d-4746-9573-742e6b696361,rev?*%
%TF.SameCoordinates,Original*%
%TF.FileFunction,Paste,Top*%
%TF.FilePolarity,Positive*%
%FSLAX46Y46*%
G04 Gerber Fmt 4.6, Leading zero omitted, Abs format (unit mm)*
G04 Created by KiCad (PCBNEW (6.0.9)) date 2022-11-21 20:55:40*
%MOMM*%
%LPD*%
G01*
G04 APERTURE LIST*
G04 Aperture macros list*
%AMRoundRect*
0 Rectangle with rounded corners*
0 $1 Rounding radius*
0 $2 $3 $4 $5 $6 $7 $8 $9 X,Y pos of 4 corners*
0 Add a 4 corners polygon primitive as box body*
4,1,4,$2,$3,$4,$5,$6,$7,$8,$9,$2,$3,0*
0 Add four circle primitives for the rounded corners*
1,1,$1+$1,$2,$3*
1,1,$1+$1,$4,$5*
1,1,$1+$1,$6,$7*
1,1,$1+$1,$8,$9*
0 Add four rect primitives between the rounded corners*
20,1,$1+$1,$2,$3,$4,$5,0*
20,1,$1+$1,$4,$5,$6,$7,0*
20,1,$1+$1,$6,$7,$8,$9,0*
20,1,$1+$1,$8,$9,$2,$3,0*%
%AMFreePoly0*
4,1,19,2.150000,-1.200000,1.177922,-1.200000,1.064578,-1.003895,0.918917,-0.830439,0.745359,-0.684899,0.549174,-0.571693,0.336318,-0.494257,0.113252,-0.454942,-0.113252,-0.454942,-0.336318,-0.494257,-0.549174,-0.571693,-0.745359,-0.684899,-0.918917,-0.830439,-1.064578,-1.003895,-1.177922,-1.200000,-2.150000,-1.200000,-2.150000,0.400000,2.150000,0.400000,2.150000,-1.200000,2.150000,-1.200000,
$1*%
%AMFreePoly1*
4,1,19,-1.064578,1.003895,-0.918917,0.830439,-0.745359,0.684899,-0.549174,0.571693,-0.336318,0.494257,-0.113252,0.454942,0.113252,0.454942,0.336318,0.494257,0.549174,0.571693,0.745359,0.684899,0.918917,0.830439,1.064578,1.003895,1.177922,1.200000,2.150000,1.200000,2.150000,-0.400000,-2.150000,-0.400000,-2.150000,1.200000,-1.177922,1.200000,-1.064578,1.003895,-1.064578,1.003895,
$1*%
G04 Aperture macros list end*
%ADD10RoundRect,0.200000X-0.200000X-0.275000X0.200000X-0.275000X0.200000X0.275000X-0.200000X0.275000X0*%
%ADD11RoundRect,0.200000X0.200000X0.275000X-0.200000X0.275000X-0.200000X-0.275000X0.200000X-0.275000X0*%
%ADD12RoundRect,0.200000X-0.275000X0.200000X-0.275000X-0.200000X0.275000X-0.200000X0.275000X0.200000X0*%
%ADD13RoundRect,0.250000X0.475000X-0.250000X0.475000X0.250000X-0.475000X0.250000X-0.475000X-0.250000X0*%
%ADD14RoundRect,0.225000X-0.225000X-0.250000X0.225000X-0.250000X0.225000X0.250000X-0.225000X0.250000X0*%
%ADD15FreePoly0,90.000000*%
%ADD16FreePoly1,90.000000*%
%ADD17RoundRect,0.225000X-0.250000X0.225000X-0.250000X-0.225000X0.250000X-0.225000X0.250000X0.225000X0*%
%ADD18RoundRect,0.172500X-0.172500X-0.172500X0.172500X-0.172500X0.172500X0.172500X-0.172500X0.172500X0*%
%ADD19RoundRect,0.062500X-0.350000X-0.062500X0.350000X-0.062500X0.350000X0.062500X-0.350000X0.062500X0*%
%ADD20RoundRect,0.062500X-0.062500X-0.350000X0.062500X-0.350000X0.062500X0.350000X-0.062500X0.350000X0*%
G04 APERTURE END LIST*
D10*
%TO.C,R10*%
X155975001Y-115979998D03*
X157625001Y-115979998D03*
%TD*%
D11*
%TO.C,R9*%
X155975001Y-114479998D03*
X157625001Y-114479998D03*
%TD*%
%TO.C,R8*%
X156125001Y-121229998D03*
X154475001Y-121229998D03*
%TD*%
D12*
%TO.C,R7*%
X153300001Y-118154998D03*
X153300001Y-119804998D03*
%TD*%
D10*
%TO.C,R5*%
X149725001Y-119979998D03*
X151375001Y-119979998D03*
%TD*%
%TO.C,R3*%
X146725001Y-115479998D03*
X148375001Y-115479998D03*
%TD*%
D13*
%TO.C,C5*%
X153550001Y-111179998D03*
X153550001Y-109279998D03*
%TD*%
D14*
%TO.C,C2*%
X143775001Y-113979998D03*
X145325001Y-113979998D03*
%TD*%
%TO.C,C3*%
X146775001Y-116979998D03*
X148325001Y-116979998D03*
%TD*%
D10*
%TO.C,R1*%
X146674996Y-113975476D03*
X148324996Y-113975476D03*
%TD*%
D15*
%TO.C,L1*%
X146774522Y-109975475D03*
D16*
X150274522Y-109975475D03*
%TD*%
D17*
%TO.C,C4*%
X151800001Y-109454998D03*
X151800001Y-111004998D03*
%TD*%
D10*
%TO.C,R2*%
X143674999Y-115475476D03*
X145324999Y-115475476D03*
%TD*%
D18*
%TO.C,U1*%
X152424998Y-115124995D03*
X151574998Y-115124995D03*
X151574998Y-114274995D03*
X152424998Y-114274995D03*
D19*
X150537498Y-113949995D03*
X150537498Y-114449995D03*
X150537498Y-114949995D03*
X150537498Y-115449995D03*
D20*
X151249998Y-116162495D03*
X151749998Y-116162495D03*
X152249998Y-116162495D03*
X152749998Y-116162495D03*
D19*
X153462498Y-115449995D03*
X153462498Y-114949995D03*
X153462498Y-114449995D03*
X153462498Y-113949995D03*
D20*
X152749998Y-113237495D03*
X152249998Y-113237495D03*
X151749998Y-113237495D03*
X151249998Y-113237495D03*
%TD*%
D12*
%TO.C,R6*%
X155050001Y-118154998D03*
X155050001Y-119804998D03*
%TD*%
D10*
%TO.C,R4*%
X149725001Y-118479998D03*
X151375001Y-118479998D03*
%TD*%
M02*
