%TF.GenerationSoftware,KiCad,Pcbnew,(6.0.9)*%
%TF.CreationDate,2022-11-21T20:55:40-06:00*%
%TF.ProjectId,solar-test,736f6c61-722d-4746-9573-742e6b696361,rev?*%
%TF.SameCoordinates,Original*%
%TF.FileFunction,Soldermask,Top*%
%TF.FilePolarity,Negative*%
%FSLAX46Y46*%
G04 Gerber Fmt 4.6, Leading zero omitted, Abs format (unit mm)*
G04 Created by KiCad (PCBNEW (6.0.9)) date 2022-11-21 20:55:40*
%MOMM*%
%LPD*%
G01*
G04 APERTURE LIST*
G04 Aperture macros list*
%AMRoundRect*
0 Rectangle with rounded corners*
0 $1 Rounding radius*
0 $2 $3 $4 $5 $6 $7 $8 $9 X,Y pos of 4 corners*
0 Add a 4 corners polygon primitive as box body*
4,1,4,$2,$3,$4,$5,$6,$7,$8,$9,$2,$3,0*
0 Add four circle primitives for the rounded corners*
1,1,$1+$1,$2,$3*
1,1,$1+$1,$4,$5*
1,1,$1+$1,$6,$7*
1,1,$1+$1,$8,$9*
0 Add four rect primitives between the rounded corners*
20,1,$1+$1,$2,$3,$4,$5,0*
20,1,$1+$1,$4,$5,$6,$7,0*
20,1,$1+$1,$6,$7,$8,$9,0*
20,1,$1+$1,$8,$9,$2,$3,0*%
%AMFreePoly0*
4,1,19,2.150000,-1.200000,1.177922,-1.200000,1.064578,-1.003895,0.918917,-0.830439,0.745359,-0.684899,0.549174,-0.571693,0.336318,-0.494257,0.113252,-0.454942,-0.113252,-0.454942,-0.336318,-0.494257,-0.549174,-0.571693,-0.745359,-0.684899,-0.918917,-0.830439,-1.064578,-1.003895,-1.177922,-1.200000,-2.150000,-1.200000,-2.150000,0.400000,2.150000,0.400000,2.150000,-1.200000,2.150000,-1.200000,
$1*%
%AMFreePoly1*
4,1,19,-1.064578,1.003895,-0.918917,0.830439,-0.745359,0.684899,-0.549174,0.571693,-0.336318,0.494257,-0.113252,0.454942,0.113252,0.454942,0.336318,0.494257,0.549174,0.571693,0.745359,0.684899,0.918917,0.830439,1.064578,1.003895,1.177922,1.200000,2.150000,1.200000,2.150000,-0.400000,-2.150000,-0.400000,-2.150000,1.200000,-1.177922,1.200000,-1.064578,1.003895,-1.064578,1.003895,
$1*%
%AMFreePoly2*
4,1,22,0.500000,-0.750000,0.000000,-0.750000,0.000000,-0.745033,-0.079941,-0.743568,-0.215256,-0.701293,-0.333266,-0.622738,-0.424486,-0.514219,-0.481581,-0.384460,-0.499164,-0.250000,-0.500000,-0.250000,-0.500000,0.250000,-0.499164,0.250000,-0.499963,0.256109,-0.478152,0.396186,-0.417904,0.524511,-0.324060,0.630769,-0.204165,0.706417,-0.067858,0.745374,0.000000,0.744959,0.000000,0.750000,
0.500000,0.750000,0.500000,-0.750000,0.500000,-0.750000,$1*%
%AMFreePoly3*
4,1,20,0.000000,0.744959,0.073905,0.744508,0.209726,0.703889,0.328688,0.626782,0.421226,0.519385,0.479903,0.390333,0.500000,0.250000,0.500000,-0.250000,0.499851,-0.262216,0.476331,-0.402017,0.414519,-0.529596,0.319384,-0.634700,0.198574,-0.708877,0.061801,-0.746166,0.000000,-0.745033,0.000000,-0.750000,-0.500000,-0.750000,-0.500000,0.750000,0.000000,0.750000,0.000000,0.744959,
0.000000,0.744959,$1*%
G04 Aperture macros list end*
%ADD10C,1.000000*%
%ADD11RoundRect,0.400000X-1.600000X-3.600000X1.600000X-3.600000X1.600000X3.600000X-1.600000X3.600000X0*%
%ADD12RoundRect,0.200000X-0.200000X-0.275000X0.200000X-0.275000X0.200000X0.275000X-0.200000X0.275000X0*%
%ADD13RoundRect,0.200000X0.200000X0.275000X-0.200000X0.275000X-0.200000X-0.275000X0.200000X-0.275000X0*%
%ADD14RoundRect,0.200000X-0.275000X0.200000X-0.275000X-0.200000X0.275000X-0.200000X0.275000X0.200000X0*%
%ADD15RoundRect,0.250000X0.475000X-0.250000X0.475000X0.250000X-0.475000X0.250000X-0.475000X-0.250000X0*%
%ADD16RoundRect,0.225000X-0.225000X-0.250000X0.225000X-0.250000X0.225000X0.250000X-0.225000X0.250000X0*%
%ADD17R,2.400000X2.400000*%
%ADD18C,2.400000*%
%ADD19FreePoly0,90.000000*%
%ADD20FreePoly1,90.000000*%
%ADD21RoundRect,0.225000X-0.250000X0.225000X-0.250000X-0.225000X0.250000X-0.225000X0.250000X0.225000X0*%
%ADD22RoundRect,0.062500X-0.350000X-0.062500X0.350000X-0.062500X0.350000X0.062500X-0.350000X0.062500X0*%
%ADD23RoundRect,0.062500X-0.062500X-0.350000X0.062500X-0.350000X0.062500X0.350000X-0.062500X0.350000X0*%
%ADD24R,1.700000X1.700000*%
%ADD25FreePoly2,270.000000*%
%ADD26FreePoly3,270.000000*%
%ADD27FreePoly2,180.000000*%
%ADD28FreePoly3,180.000000*%
G04 APERTURE END LIST*
D10*
%TO.C,TP1*%
X160000000Y-113450000D03*
%TD*%
D11*
%TO.C,SC1*%
X148500000Y-102700000D03*
X169500000Y-102700000D03*
%TD*%
D12*
%TO.C,R10*%
X155975001Y-115979998D03*
X157625001Y-115979998D03*
%TD*%
D13*
%TO.C,R9*%
X155975001Y-114479998D03*
X157625001Y-114479998D03*
%TD*%
%TO.C,R8*%
X156125001Y-121229998D03*
X154475001Y-121229998D03*
%TD*%
D14*
%TO.C,R7*%
X153300001Y-118154998D03*
X153300001Y-119804998D03*
%TD*%
D12*
%TO.C,R5*%
X149725001Y-119979998D03*
X151375001Y-119979998D03*
%TD*%
%TO.C,R3*%
X146725001Y-115479998D03*
X148375001Y-115479998D03*
%TD*%
D15*
%TO.C,C5*%
X153550001Y-111179998D03*
X153550001Y-109279998D03*
%TD*%
D16*
%TO.C,C2*%
X143775001Y-113979998D03*
X145325001Y-113979998D03*
%TD*%
D17*
%TO.C,C1*%
X168250000Y-112384785D03*
D18*
X168250000Y-117384785D03*
%TD*%
D16*
%TO.C,C3*%
X146775001Y-116979998D03*
X148325001Y-116979998D03*
%TD*%
D12*
%TO.C,R1*%
X146674996Y-113975476D03*
X148324996Y-113975476D03*
%TD*%
D19*
%TO.C,L1*%
X146774522Y-109975475D03*
D20*
X150274522Y-109975475D03*
%TD*%
D21*
%TO.C,C4*%
X151800001Y-109454998D03*
X151800001Y-111004998D03*
%TD*%
D12*
%TO.C,R2*%
X143674999Y-115475476D03*
X145324999Y-115475476D03*
%TD*%
D22*
%TO.C,U1*%
X150537498Y-113949995D03*
X150537498Y-114449995D03*
X150537498Y-114949995D03*
X150537498Y-115449995D03*
D23*
X151249998Y-116162495D03*
X151749998Y-116162495D03*
X152249998Y-116162495D03*
X152749998Y-116162495D03*
D22*
X153462498Y-115449995D03*
X153462498Y-114949995D03*
X153462498Y-114449995D03*
X153462498Y-113949995D03*
D23*
X152749998Y-113237495D03*
X152249998Y-113237495D03*
X151749998Y-113237495D03*
X151249998Y-113237495D03*
D24*
X151999998Y-114699995D03*
%TD*%
D14*
%TO.C,R6*%
X155050001Y-118154998D03*
X155050001Y-119804998D03*
%TD*%
D25*
%TO.C,JP1*%
X157224999Y-118299995D03*
D26*
X157224999Y-119599995D03*
%TD*%
D12*
%TO.C,R4*%
X149725001Y-118479998D03*
X151375001Y-118479998D03*
%TD*%
D27*
%TO.C,JP2*%
X157374520Y-112425477D03*
D28*
X156074520Y-112425477D03*
%TD*%
M02*
