%TF.GenerationSoftware,KiCad,Pcbnew,(6.0.9)*%
%TF.CreationDate,2022-11-21T20:55:40-06:00*%
%TF.ProjectId,solar-test,736f6c61-722d-4746-9573-742e6b696361,rev?*%
%TF.SameCoordinates,Original*%
%TF.FileFunction,Legend,Top*%
%TF.FilePolarity,Positive*%
%FSLAX46Y46*%
G04 Gerber Fmt 4.6, Leading zero omitted, Abs format (unit mm)*
G04 Created by KiCad (PCBNEW (6.0.9)) date 2022-11-21 20:55:40*
%MOMM*%
%LPD*%
G01*
G04 APERTURE LIST*
G04 Aperture macros list*
%AMRoundRect*
0 Rectangle with rounded corners*
0 $1 Rounding radius*
0 $2 $3 $4 $5 $6 $7 $8 $9 X,Y pos of 4 corners*
0 Add a 4 corners polygon primitive as box body*
4,1,4,$2,$3,$4,$5,$6,$7,$8,$9,$2,$3,0*
0 Add four circle primitives for the rounded corners*
1,1,$1+$1,$2,$3*
1,1,$1+$1,$4,$5*
1,1,$1+$1,$6,$7*
1,1,$1+$1,$8,$9*
0 Add four rect primitives between the rounded corners*
20,1,$1+$1,$2,$3,$4,$5,0*
20,1,$1+$1,$4,$5,$6,$7,0*
20,1,$1+$1,$6,$7,$8,$9,0*
20,1,$1+$1,$8,$9,$2,$3,0*%
%AMFreePoly0*
4,1,19,2.150000,-1.200000,1.177922,-1.200000,1.064578,-1.003895,0.918917,-0.830439,0.745359,-0.684899,0.549174,-0.571693,0.336318,-0.494257,0.113252,-0.454942,-0.113252,-0.454942,-0.336318,-0.494257,-0.549174,-0.571693,-0.745359,-0.684899,-0.918917,-0.830439,-1.064578,-1.003895,-1.177922,-1.200000,-2.150000,-1.200000,-2.150000,0.400000,2.150000,0.400000,2.150000,-1.200000,2.150000,-1.200000,
$1*%
%AMFreePoly1*
4,1,19,-1.064578,1.003895,-0.918917,0.830439,-0.745359,0.684899,-0.549174,0.571693,-0.336318,0.494257,-0.113252,0.454942,0.113252,0.454942,0.336318,0.494257,0.549174,0.571693,0.745359,0.684899,0.918917,0.830439,1.064578,1.003895,1.177922,1.200000,2.150000,1.200000,2.150000,-0.400000,-2.150000,-0.400000,-2.150000,1.200000,-1.177922,1.200000,-1.064578,1.003895,-1.064578,1.003895,
$1*%
%AMFreePoly2*
4,1,22,0.500000,-0.750000,0.000000,-0.750000,0.000000,-0.745033,-0.079941,-0.743568,-0.215256,-0.701293,-0.333266,-0.622738,-0.424486,-0.514219,-0.481581,-0.384460,-0.499164,-0.250000,-0.500000,-0.250000,-0.500000,0.250000,-0.499164,0.250000,-0.499963,0.256109,-0.478152,0.396186,-0.417904,0.524511,-0.324060,0.630769,-0.204165,0.706417,-0.067858,0.745374,0.000000,0.744959,0.000000,0.750000,
0.500000,0.750000,0.500000,-0.750000,0.500000,-0.750000,$1*%
%AMFreePoly3*
4,1,20,0.000000,0.744959,0.073905,0.744508,0.209726,0.703889,0.328688,0.626782,0.421226,0.519385,0.479903,0.390333,0.500000,0.250000,0.500000,-0.250000,0.499851,-0.262216,0.476331,-0.402017,0.414519,-0.529596,0.319384,-0.634700,0.198574,-0.708877,0.061801,-0.746166,0.000000,-0.745033,0.000000,-0.750000,-0.500000,-0.750000,-0.500000,0.750000,0.000000,0.750000,0.000000,0.744959,
0.000000,0.744959,$1*%
G04 Aperture macros list end*
%ADD10C,0.150000*%
%ADD11C,0.300000*%
%ADD12C,0.120000*%
%ADD13C,1.000000*%
%ADD14RoundRect,0.400000X-1.600000X-3.600000X1.600000X-3.600000X1.600000X3.600000X-1.600000X3.600000X0*%
%ADD15RoundRect,0.200000X-0.200000X-0.275000X0.200000X-0.275000X0.200000X0.275000X-0.200000X0.275000X0*%
%ADD16RoundRect,0.200000X0.200000X0.275000X-0.200000X0.275000X-0.200000X-0.275000X0.200000X-0.275000X0*%
%ADD17RoundRect,0.200000X-0.275000X0.200000X-0.275000X-0.200000X0.275000X-0.200000X0.275000X0.200000X0*%
%ADD18RoundRect,0.250000X0.475000X-0.250000X0.475000X0.250000X-0.475000X0.250000X-0.475000X-0.250000X0*%
%ADD19RoundRect,0.225000X-0.225000X-0.250000X0.225000X-0.250000X0.225000X0.250000X-0.225000X0.250000X0*%
%ADD20R,2.400000X2.400000*%
%ADD21C,2.400000*%
%ADD22FreePoly0,90.000000*%
%ADD23FreePoly1,90.000000*%
%ADD24RoundRect,0.225000X-0.250000X0.225000X-0.250000X-0.225000X0.250000X-0.225000X0.250000X0.225000X0*%
%ADD25RoundRect,0.062500X-0.350000X-0.062500X0.350000X-0.062500X0.350000X0.062500X-0.350000X0.062500X0*%
%ADD26RoundRect,0.062500X-0.062500X-0.350000X0.062500X-0.350000X0.062500X0.350000X-0.062500X0.350000X0*%
%ADD27R,1.700000X1.700000*%
%ADD28FreePoly2,270.000000*%
%ADD29FreePoly3,270.000000*%
%ADD30FreePoly2,180.000000*%
%ADD31FreePoly3,180.000000*%
G04 APERTURE END LIST*
D10*
X154380952Y-102402380D02*
X154380952Y-103116666D01*
X154333333Y-103259523D01*
X154238095Y-103354761D01*
X154095238Y-103402380D01*
X154000000Y-103402380D01*
X155333333Y-103402380D02*
X154857142Y-103402380D01*
X154857142Y-102402380D01*
X156238095Y-103307142D02*
X156190476Y-103354761D01*
X156047619Y-103402380D01*
X155952380Y-103402380D01*
X155809523Y-103354761D01*
X155714285Y-103259523D01*
X155666666Y-103164285D01*
X155619047Y-102973809D01*
X155619047Y-102830952D01*
X155666666Y-102640476D01*
X155714285Y-102545238D01*
X155809523Y-102450000D01*
X155952380Y-102402380D01*
X156047619Y-102402380D01*
X156190476Y-102450000D01*
X156238095Y-102497619D01*
X156952380Y-102402380D02*
X156952380Y-103116666D01*
X156904761Y-103259523D01*
X156809523Y-103354761D01*
X156666666Y-103402380D01*
X156571428Y-103402380D01*
X157904761Y-103402380D02*
X157428571Y-103402380D01*
X157428571Y-102402380D01*
X158809523Y-103307142D02*
X158761904Y-103354761D01*
X158619047Y-103402380D01*
X158523809Y-103402380D01*
X158380952Y-103354761D01*
X158285714Y-103259523D01*
X158238095Y-103164285D01*
X158190476Y-102973809D01*
X158190476Y-102830952D01*
X158238095Y-102640476D01*
X158285714Y-102545238D01*
X158380952Y-102450000D01*
X158523809Y-102402380D01*
X158619047Y-102402380D01*
X158761904Y-102450000D01*
X158809523Y-102497619D01*
X159523809Y-102402380D02*
X159523809Y-103116666D01*
X159476190Y-103259523D01*
X159380952Y-103354761D01*
X159238095Y-103402380D01*
X159142857Y-103402380D01*
X160476190Y-103402380D02*
X160000000Y-103402380D01*
X160000000Y-102402380D01*
X161380952Y-103307142D02*
X161333333Y-103354761D01*
X161190476Y-103402380D01*
X161095238Y-103402380D01*
X160952380Y-103354761D01*
X160857142Y-103259523D01*
X160809523Y-103164285D01*
X160761904Y-102973809D01*
X160761904Y-102830952D01*
X160809523Y-102640476D01*
X160857142Y-102545238D01*
X160952380Y-102450000D01*
X161095238Y-102402380D01*
X161190476Y-102402380D01*
X161333333Y-102450000D01*
X161380952Y-102497619D01*
X162095238Y-102402380D02*
X162095238Y-103116666D01*
X162047619Y-103259523D01*
X161952380Y-103354761D01*
X161809523Y-103402380D01*
X161714285Y-103402380D01*
X163047619Y-103402380D02*
X162571428Y-103402380D01*
X162571428Y-102402380D01*
X163952380Y-103307142D02*
X163904761Y-103354761D01*
X163761904Y-103402380D01*
X163666666Y-103402380D01*
X163523809Y-103354761D01*
X163428571Y-103259523D01*
X163380952Y-103164285D01*
X163333333Y-102973809D01*
X163333333Y-102830952D01*
X163380952Y-102640476D01*
X163428571Y-102545238D01*
X163523809Y-102450000D01*
X163666666Y-102402380D01*
X163761904Y-102402380D01*
X163904761Y-102450000D01*
X163952380Y-102497619D01*
%TO.C,TP1*%
X158738095Y-111454380D02*
X159309523Y-111454380D01*
X159023809Y-112454380D02*
X159023809Y-111454380D01*
X159642857Y-112454380D02*
X159642857Y-111454380D01*
X160023809Y-111454380D01*
X160119047Y-111502000D01*
X160166666Y-111549619D01*
X160214285Y-111644857D01*
X160214285Y-111787714D01*
X160166666Y-111882952D01*
X160119047Y-111930571D01*
X160023809Y-111978190D01*
X159642857Y-111978190D01*
X161166666Y-112454380D02*
X160595238Y-112454380D01*
X160880952Y-112454380D02*
X160880952Y-111454380D01*
X160785714Y-111597238D01*
X160690476Y-111692476D01*
X160595238Y-111740095D01*
%TO.C,SC1*%
X157738095Y-97104761D02*
X157880952Y-97152380D01*
X158119047Y-97152380D01*
X158214285Y-97104761D01*
X158261904Y-97057142D01*
X158309523Y-96961904D01*
X158309523Y-96866666D01*
X158261904Y-96771428D01*
X158214285Y-96723809D01*
X158119047Y-96676190D01*
X157928571Y-96628571D01*
X157833333Y-96580952D01*
X157785714Y-96533333D01*
X157738095Y-96438095D01*
X157738095Y-96342857D01*
X157785714Y-96247619D01*
X157833333Y-96200000D01*
X157928571Y-96152380D01*
X158166666Y-96152380D01*
X158309523Y-96200000D01*
X159309523Y-97057142D02*
X159261904Y-97104761D01*
X159119047Y-97152380D01*
X159023809Y-97152380D01*
X158880952Y-97104761D01*
X158785714Y-97009523D01*
X158738095Y-96914285D01*
X158690476Y-96723809D01*
X158690476Y-96580952D01*
X158738095Y-96390476D01*
X158785714Y-96295238D01*
X158880952Y-96200000D01*
X159023809Y-96152380D01*
X159119047Y-96152380D01*
X159261904Y-96200000D01*
X159309523Y-96247619D01*
X160261904Y-97152380D02*
X159690476Y-97152380D01*
X159976190Y-97152380D02*
X159976190Y-96152380D01*
X159880952Y-96295238D01*
X159785714Y-96390476D01*
X159690476Y-96438095D01*
D11*
X165678571Y-102807142D02*
X166821428Y-102807142D01*
X151178571Y-102807142D02*
X152321428Y-102807142D01*
X151750000Y-103378571D02*
X151750000Y-102235714D01*
D10*
%TO.C,R10*%
X159107142Y-115402380D02*
X158773809Y-114926190D01*
X158535714Y-115402380D02*
X158535714Y-114402380D01*
X158916666Y-114402380D01*
X159011904Y-114450000D01*
X159059523Y-114497619D01*
X159107142Y-114592857D01*
X159107142Y-114735714D01*
X159059523Y-114830952D01*
X159011904Y-114878571D01*
X158916666Y-114926190D01*
X158535714Y-114926190D01*
X160059523Y-115402380D02*
X159488095Y-115402380D01*
X159773809Y-115402380D02*
X159773809Y-114402380D01*
X159678571Y-114545238D01*
X159583333Y-114640476D01*
X159488095Y-114688095D01*
X160678571Y-114402380D02*
X160773809Y-114402380D01*
X160869047Y-114450000D01*
X160916666Y-114497619D01*
X160964285Y-114592857D01*
X161011904Y-114783333D01*
X161011904Y-115021428D01*
X160964285Y-115211904D01*
X160916666Y-115307142D01*
X160869047Y-115354761D01*
X160773809Y-115402380D01*
X160678571Y-115402380D01*
X160583333Y-115354761D01*
X160535714Y-115307142D01*
X160488095Y-115211904D01*
X160440476Y-115021428D01*
X160440476Y-114783333D01*
X160488095Y-114592857D01*
X160535714Y-114497619D01*
X160583333Y-114450000D01*
X160678571Y-114402380D01*
%TO.C,R9*%
X159333333Y-116652380D02*
X159000000Y-116176190D01*
X158761904Y-116652380D02*
X158761904Y-115652380D01*
X159142857Y-115652380D01*
X159238095Y-115700000D01*
X159285714Y-115747619D01*
X159333333Y-115842857D01*
X159333333Y-115985714D01*
X159285714Y-116080952D01*
X159238095Y-116128571D01*
X159142857Y-116176190D01*
X158761904Y-116176190D01*
X159809523Y-116652380D02*
X160000000Y-116652380D01*
X160095238Y-116604761D01*
X160142857Y-116557142D01*
X160238095Y-116414285D01*
X160285714Y-116223809D01*
X160285714Y-115842857D01*
X160238095Y-115747619D01*
X160190476Y-115700000D01*
X160095238Y-115652380D01*
X159904761Y-115652380D01*
X159809523Y-115700000D01*
X159761904Y-115747619D01*
X159714285Y-115842857D01*
X159714285Y-116080952D01*
X159761904Y-116176190D01*
X159809523Y-116223809D01*
X159904761Y-116271428D01*
X160095238Y-116271428D01*
X160190476Y-116223809D01*
X160238095Y-116176190D01*
X160285714Y-116080952D01*
%TO.C,R8*%
X155133334Y-123112378D02*
X154800001Y-122636188D01*
X154561905Y-123112378D02*
X154561905Y-122112378D01*
X154942858Y-122112378D01*
X155038096Y-122159998D01*
X155085715Y-122207617D01*
X155133334Y-122302855D01*
X155133334Y-122445712D01*
X155085715Y-122540950D01*
X155038096Y-122588569D01*
X154942858Y-122636188D01*
X154561905Y-122636188D01*
X155704762Y-122540950D02*
X155609524Y-122493331D01*
X155561905Y-122445712D01*
X155514286Y-122350474D01*
X155514286Y-122302855D01*
X155561905Y-122207617D01*
X155609524Y-122159998D01*
X155704762Y-122112378D01*
X155895239Y-122112378D01*
X155990477Y-122159998D01*
X156038096Y-122207617D01*
X156085715Y-122302855D01*
X156085715Y-122350474D01*
X156038096Y-122445712D01*
X155990477Y-122493331D01*
X155895239Y-122540950D01*
X155704762Y-122540950D01*
X155609524Y-122588569D01*
X155561905Y-122636188D01*
X155514286Y-122731426D01*
X155514286Y-122921902D01*
X155561905Y-123017140D01*
X155609524Y-123064759D01*
X155704762Y-123112378D01*
X155895239Y-123112378D01*
X155990477Y-123064759D01*
X156038096Y-123017140D01*
X156085715Y-122921902D01*
X156085715Y-122731426D01*
X156038096Y-122636188D01*
X155990477Y-122588569D01*
X155895239Y-122540950D01*
%TO.C,R7*%
X153702380Y-121616666D02*
X153226190Y-121950000D01*
X153702380Y-122188095D02*
X152702380Y-122188095D01*
X152702380Y-121807142D01*
X152750000Y-121711904D01*
X152797619Y-121664285D01*
X152892857Y-121616666D01*
X153035714Y-121616666D01*
X153130952Y-121664285D01*
X153178571Y-121711904D01*
X153226190Y-121807142D01*
X153226190Y-122188095D01*
X152702380Y-121283333D02*
X152702380Y-120616666D01*
X153702380Y-121045238D01*
%TO.C,R5*%
X147833333Y-119002378D02*
X147500000Y-118526188D01*
X147261904Y-119002378D02*
X147261904Y-118002378D01*
X147642857Y-118002378D01*
X147738095Y-118049998D01*
X147785714Y-118097617D01*
X147833333Y-118192855D01*
X147833333Y-118335712D01*
X147785714Y-118430950D01*
X147738095Y-118478569D01*
X147642857Y-118526188D01*
X147261904Y-118526188D01*
X148738095Y-118002378D02*
X148261904Y-118002378D01*
X148214285Y-118478569D01*
X148261904Y-118430950D01*
X148357142Y-118383331D01*
X148595238Y-118383331D01*
X148690476Y-118430950D01*
X148738095Y-118478569D01*
X148785714Y-118573807D01*
X148785714Y-118811902D01*
X148738095Y-118907140D01*
X148690476Y-118954759D01*
X148595238Y-119002378D01*
X148357142Y-119002378D01*
X148261904Y-118954759D01*
X148214285Y-118907140D01*
%TO.C,R3*%
X145083333Y-117402380D02*
X144750000Y-116926190D01*
X144511904Y-117402380D02*
X144511904Y-116402380D01*
X144892857Y-116402380D01*
X144988095Y-116450000D01*
X145035714Y-116497619D01*
X145083333Y-116592857D01*
X145083333Y-116735714D01*
X145035714Y-116830952D01*
X144988095Y-116878571D01*
X144892857Y-116926190D01*
X144511904Y-116926190D01*
X145416666Y-116402380D02*
X146035714Y-116402380D01*
X145702380Y-116783333D01*
X145845238Y-116783333D01*
X145940476Y-116830952D01*
X145988095Y-116878571D01*
X146035714Y-116973809D01*
X146035714Y-117211904D01*
X145988095Y-117307142D01*
X145940476Y-117354761D01*
X145845238Y-117402380D01*
X145559523Y-117402380D01*
X145464285Y-117354761D01*
X145416666Y-117307142D01*
%TO.C,C5*%
X153833333Y-108307142D02*
X153785714Y-108354761D01*
X153642857Y-108402380D01*
X153547619Y-108402380D01*
X153404761Y-108354761D01*
X153309523Y-108259523D01*
X153261904Y-108164285D01*
X153214285Y-107973809D01*
X153214285Y-107830952D01*
X153261904Y-107640476D01*
X153309523Y-107545238D01*
X153404761Y-107450000D01*
X153547619Y-107402380D01*
X153642857Y-107402380D01*
X153785714Y-107450000D01*
X153833333Y-107497619D01*
X154738095Y-107402380D02*
X154261904Y-107402380D01*
X154214285Y-107878571D01*
X154261904Y-107830952D01*
X154357142Y-107783333D01*
X154595238Y-107783333D01*
X154690476Y-107830952D01*
X154738095Y-107878571D01*
X154785714Y-107973809D01*
X154785714Y-108211904D01*
X154738095Y-108307142D01*
X154690476Y-108354761D01*
X154595238Y-108402380D01*
X154357142Y-108402380D01*
X154261904Y-108354761D01*
X154214285Y-108307142D01*
%TO.C,C2*%
X143333333Y-112907140D02*
X143285714Y-112954759D01*
X143142857Y-113002378D01*
X143047619Y-113002378D01*
X142904761Y-112954759D01*
X142809523Y-112859521D01*
X142761904Y-112764283D01*
X142714285Y-112573807D01*
X142714285Y-112430950D01*
X142761904Y-112240474D01*
X142809523Y-112145236D01*
X142904761Y-112049998D01*
X143047619Y-112002378D01*
X143142857Y-112002378D01*
X143285714Y-112049998D01*
X143333333Y-112097617D01*
X143714285Y-112097617D02*
X143761904Y-112049998D01*
X143857142Y-112002378D01*
X144095238Y-112002378D01*
X144190476Y-112049998D01*
X144238095Y-112097617D01*
X144285714Y-112192855D01*
X144285714Y-112288093D01*
X144238095Y-112430950D01*
X143666666Y-113002378D01*
X144285714Y-113002378D01*
%TO.C,C1*%
X162583333Y-109057142D02*
X162535714Y-109104761D01*
X162392857Y-109152380D01*
X162297619Y-109152380D01*
X162154761Y-109104761D01*
X162059523Y-109009523D01*
X162011904Y-108914285D01*
X161964285Y-108723809D01*
X161964285Y-108580952D01*
X162011904Y-108390476D01*
X162059523Y-108295238D01*
X162154761Y-108200000D01*
X162297619Y-108152380D01*
X162392857Y-108152380D01*
X162535714Y-108200000D01*
X162583333Y-108247619D01*
X163535714Y-109152380D02*
X162964285Y-109152380D01*
X163250000Y-109152380D02*
X163250000Y-108152380D01*
X163154761Y-108295238D01*
X163059523Y-108390476D01*
X162964285Y-108438095D01*
%TO.C,C3*%
X145083333Y-119057142D02*
X145035714Y-119104761D01*
X144892857Y-119152380D01*
X144797619Y-119152380D01*
X144654761Y-119104761D01*
X144559523Y-119009523D01*
X144511904Y-118914285D01*
X144464285Y-118723809D01*
X144464285Y-118580952D01*
X144511904Y-118390476D01*
X144559523Y-118295238D01*
X144654761Y-118200000D01*
X144797619Y-118152380D01*
X144892857Y-118152380D01*
X145035714Y-118200000D01*
X145083333Y-118247619D01*
X145416666Y-118152380D02*
X146035714Y-118152380D01*
X145702380Y-118533333D01*
X145845238Y-118533333D01*
X145940476Y-118580952D01*
X145988095Y-118628571D01*
X146035714Y-118723809D01*
X146035714Y-118961904D01*
X145988095Y-119057142D01*
X145940476Y-119104761D01*
X145845238Y-119152380D01*
X145559523Y-119152380D01*
X145464285Y-119104761D01*
X145416666Y-119057142D01*
%TO.C,R1*%
X145333333Y-112902380D02*
X145000000Y-112426190D01*
X144761904Y-112902380D02*
X144761904Y-111902380D01*
X145142857Y-111902380D01*
X145238095Y-111950000D01*
X145285714Y-111997619D01*
X145333333Y-112092857D01*
X145333333Y-112235714D01*
X145285714Y-112330952D01*
X145238095Y-112378571D01*
X145142857Y-112426190D01*
X144761904Y-112426190D01*
X146285714Y-112902380D02*
X145714285Y-112902380D01*
X146000000Y-112902380D02*
X146000000Y-111902380D01*
X145904761Y-112045238D01*
X145809523Y-112140476D01*
X145714285Y-112188095D01*
%TO.C,L1*%
X145976902Y-110142141D02*
X145976902Y-110618332D01*
X144976902Y-110618332D01*
X145976902Y-109284998D02*
X145976902Y-109856427D01*
X145976902Y-109570713D02*
X144976902Y-109570713D01*
X145119760Y-109665951D01*
X145214998Y-109761189D01*
X145262617Y-109856427D01*
%TO.C,C4*%
X151583333Y-108307142D02*
X151535714Y-108354761D01*
X151392857Y-108402380D01*
X151297619Y-108402380D01*
X151154761Y-108354761D01*
X151059523Y-108259523D01*
X151011904Y-108164285D01*
X150964285Y-107973809D01*
X150964285Y-107830952D01*
X151011904Y-107640476D01*
X151059523Y-107545238D01*
X151154761Y-107450000D01*
X151297619Y-107402380D01*
X151392857Y-107402380D01*
X151535714Y-107450000D01*
X151583333Y-107497619D01*
X152440476Y-107735714D02*
X152440476Y-108402380D01*
X152202380Y-107354761D02*
X151964285Y-108069047D01*
X152583333Y-108069047D01*
%TO.C,R2*%
X143333333Y-117402380D02*
X143000000Y-116926190D01*
X142761904Y-117402380D02*
X142761904Y-116402380D01*
X143142857Y-116402380D01*
X143238095Y-116450000D01*
X143285714Y-116497619D01*
X143333333Y-116592857D01*
X143333333Y-116735714D01*
X143285714Y-116830952D01*
X143238095Y-116878571D01*
X143142857Y-116926190D01*
X142761904Y-116926190D01*
X143714285Y-116497619D02*
X143761904Y-116450000D01*
X143857142Y-116402380D01*
X144095238Y-116402380D01*
X144190476Y-116450000D01*
X144238095Y-116497619D01*
X144285714Y-116592857D01*
X144285714Y-116688095D01*
X144238095Y-116830952D01*
X143666666Y-117402380D01*
X144285714Y-117402380D01*
%TO.C,U1*%
X154863095Y-109702380D02*
X154863095Y-110511904D01*
X154910714Y-110607142D01*
X154958333Y-110654761D01*
X155053571Y-110702380D01*
X155244047Y-110702380D01*
X155339285Y-110654761D01*
X155386904Y-110607142D01*
X155434523Y-110511904D01*
X155434523Y-109702380D01*
X156434523Y-110702380D02*
X155863095Y-110702380D01*
X156148809Y-110702380D02*
X156148809Y-109702380D01*
X156053571Y-109845238D01*
X155958333Y-109940476D01*
X155863095Y-109988095D01*
%TO.C,R6*%
X159333333Y-117902380D02*
X159000000Y-117426190D01*
X158761904Y-117902380D02*
X158761904Y-116902380D01*
X159142857Y-116902380D01*
X159238095Y-116950000D01*
X159285714Y-116997619D01*
X159333333Y-117092857D01*
X159333333Y-117235714D01*
X159285714Y-117330952D01*
X159238095Y-117378571D01*
X159142857Y-117426190D01*
X158761904Y-117426190D01*
X160190476Y-116902380D02*
X160000000Y-116902380D01*
X159904761Y-116950000D01*
X159857142Y-116997619D01*
X159761904Y-117140476D01*
X159714285Y-117330952D01*
X159714285Y-117711904D01*
X159761904Y-117807142D01*
X159809523Y-117854761D01*
X159904761Y-117902380D01*
X160095238Y-117902380D01*
X160190476Y-117854761D01*
X160238095Y-117807142D01*
X160285714Y-117711904D01*
X160285714Y-117473809D01*
X160238095Y-117378571D01*
X160190476Y-117330952D01*
X160095238Y-117283333D01*
X159904761Y-117283333D01*
X159809523Y-117330952D01*
X159761904Y-117378571D01*
X159714285Y-117473809D01*
%TO.C,JP1*%
X157291665Y-120902375D02*
X157291665Y-121616661D01*
X157244046Y-121759518D01*
X157148808Y-121854756D01*
X157005951Y-121902375D01*
X156910713Y-121902375D01*
X157767856Y-121902375D02*
X157767856Y-120902375D01*
X158148808Y-120902375D01*
X158244046Y-120949995D01*
X158291665Y-120997614D01*
X158339284Y-121092852D01*
X158339284Y-121235709D01*
X158291665Y-121330947D01*
X158244046Y-121378566D01*
X158148808Y-121426185D01*
X157767856Y-121426185D01*
X159291665Y-121902375D02*
X158720237Y-121902375D01*
X159005951Y-121902375D02*
X159005951Y-120902375D01*
X158910713Y-121045233D01*
X158815475Y-121140471D01*
X158720237Y-121188090D01*
%TO.C,R4*%
X147833333Y-120532378D02*
X147500000Y-120056188D01*
X147261904Y-120532378D02*
X147261904Y-119532378D01*
X147642857Y-119532378D01*
X147738095Y-119579998D01*
X147785714Y-119627617D01*
X147833333Y-119722855D01*
X147833333Y-119865712D01*
X147785714Y-119960950D01*
X147738095Y-120008569D01*
X147642857Y-120056188D01*
X147261904Y-120056188D01*
X148690476Y-119865712D02*
X148690476Y-120532378D01*
X148452380Y-119484759D02*
X148214285Y-120199045D01*
X148833333Y-120199045D01*
%TO.C,JP2*%
X157091187Y-109877856D02*
X157091187Y-110592142D01*
X157043568Y-110734999D01*
X156948330Y-110830237D01*
X156805473Y-110877856D01*
X156710235Y-110877856D01*
X157567378Y-110877856D02*
X157567378Y-109877856D01*
X157948330Y-109877856D01*
X158043568Y-109925476D01*
X158091187Y-109973095D01*
X158138806Y-110068333D01*
X158138806Y-110211190D01*
X158091187Y-110306428D01*
X158043568Y-110354047D01*
X157948330Y-110401666D01*
X157567378Y-110401666D01*
X158519759Y-109973095D02*
X158567378Y-109925476D01*
X158662616Y-109877856D01*
X158900711Y-109877856D01*
X158995949Y-109925476D01*
X159043568Y-109973095D01*
X159091187Y-110068333D01*
X159091187Y-110163571D01*
X159043568Y-110306428D01*
X158472140Y-110877856D01*
X159091187Y-110877856D01*
D12*
%TO.C,TP1*%
X160700000Y-113450000D02*
G75*
G03*
X160700000Y-113450000I-700000J0D01*
G01*
%TO.C,R10*%
X156562743Y-116502498D02*
X157037259Y-116502498D01*
X156562743Y-115457498D02*
X157037259Y-115457498D01*
%TO.C,R9*%
X157037259Y-115002498D02*
X156562743Y-115002498D01*
X157037259Y-113957498D02*
X156562743Y-113957498D01*
%TO.C,R8*%
X155537259Y-120707498D02*
X155062743Y-120707498D01*
X155537259Y-121752498D02*
X155062743Y-121752498D01*
%TO.C,R7*%
X152777501Y-118742740D02*
X152777501Y-119217256D01*
X153822501Y-118742740D02*
X153822501Y-119217256D01*
%TO.C,R5*%
X150312743Y-120502498D02*
X150787259Y-120502498D01*
X150312743Y-119457498D02*
X150787259Y-119457498D01*
%TO.C,R3*%
X147312743Y-116002498D02*
X147787259Y-116002498D01*
X147312743Y-114957498D02*
X147787259Y-114957498D01*
%TO.C,C5*%
X154285001Y-110491250D02*
X154285001Y-109968746D01*
X152815001Y-110491250D02*
X152815001Y-109968746D01*
%TO.C,C2*%
X144409421Y-114489998D02*
X144690581Y-114489998D01*
X144409421Y-113469998D02*
X144690581Y-113469998D01*
%TO.C,C1*%
X171965000Y-107800216D02*
X171965000Y-109100216D01*
X173792000Y-118445785D02*
X169690000Y-118445785D01*
X166810000Y-116645785D02*
X161908000Y-116645785D01*
X174534000Y-116845785D02*
X169690000Y-116845785D01*
X166810000Y-117005785D02*
X162018000Y-117005785D01*
X173891000Y-118285785D02*
X169690000Y-118285785D01*
X174454000Y-117085785D02*
X169690000Y-117085785D01*
X173485000Y-118885785D02*
X163015000Y-118885785D01*
X171804000Y-120445785D02*
X164696000Y-120445785D01*
X173227000Y-119205785D02*
X163273000Y-119205785D01*
X174425000Y-117165785D02*
X169690000Y-117165785D01*
X166810000Y-116525785D02*
X161876000Y-116525785D01*
X174821000Y-115244785D02*
X161679000Y-115244785D01*
X172455000Y-119965785D02*
X164045000Y-119965785D01*
X174826000Y-115124785D02*
X161674000Y-115124785D01*
X170920000Y-120925785D02*
X165580000Y-120925785D01*
X166810000Y-117365785D02*
X162152000Y-117365785D01*
X173574000Y-118765785D02*
X169690000Y-118765785D01*
X173261000Y-119165785D02*
X163239000Y-119165785D01*
X166810000Y-117965785D02*
X162430000Y-117965785D01*
X174070000Y-117965785D02*
X169690000Y-117965785D01*
X170305000Y-121165785D02*
X166195000Y-121165785D01*
X166810000Y-118445785D02*
X162708000Y-118445785D01*
X172407000Y-120005785D02*
X164093000Y-120005785D01*
X174689000Y-116245785D02*
X169690000Y-116245785D01*
X173631000Y-118685785D02*
X169690000Y-118685785D01*
X174791000Y-115605785D02*
X161709000Y-115605785D01*
X166810000Y-116725785D02*
X161930000Y-116725785D01*
X173983000Y-118125785D02*
X169690000Y-118125785D01*
X166810000Y-117205785D02*
X162089000Y-117205785D01*
X166810000Y-117485785D02*
X162201000Y-117485785D01*
X173659000Y-118645785D02*
X169690000Y-118645785D01*
X173842000Y-118365785D02*
X169690000Y-118365785D01*
X166810000Y-118485785D02*
X162734000Y-118485785D01*
X174772000Y-115765785D02*
X161728000Y-115765785D01*
X166810000Y-118365785D02*
X162658000Y-118365785D01*
X174171000Y-117765785D02*
X169690000Y-117765785D01*
X172307000Y-120085785D02*
X164193000Y-120085785D01*
X166810000Y-116085785D02*
X161779000Y-116085785D01*
X169903000Y-121285785D02*
X166597000Y-121285785D01*
X173740000Y-118525785D02*
X169690000Y-118525785D01*
X166810000Y-117565785D02*
X162236000Y-117565785D01*
X166810000Y-118405785D02*
X162683000Y-118405785D01*
X166810000Y-117165785D02*
X162075000Y-117165785D01*
X173121000Y-119325785D02*
X163379000Y-119325785D01*
X174614000Y-116565785D02*
X169690000Y-116565785D01*
X174766000Y-115805785D02*
X161734000Y-115805785D01*
X174006000Y-118085785D02*
X169690000Y-118085785D01*
X174396000Y-117245785D02*
X169690000Y-117245785D01*
X168725000Y-121485785D02*
X167775000Y-121485785D01*
X166810000Y-116365785D02*
X161837000Y-116365785D01*
X166810000Y-118285785D02*
X162609000Y-118285785D01*
X174782000Y-115685785D02*
X161718000Y-115685785D01*
X166810000Y-116445785D02*
X161856000Y-116445785D01*
X173938000Y-118205785D02*
X169690000Y-118205785D01*
X166810000Y-117325785D02*
X162136000Y-117325785D01*
X173713000Y-118565785D02*
X169690000Y-118565785D01*
X171473000Y-120645785D02*
X165027000Y-120645785D01*
X174721000Y-116085785D02*
X169690000Y-116085785D01*
X174592000Y-116645785D02*
X169690000Y-116645785D01*
X166810000Y-116205785D02*
X161802000Y-116205785D01*
X174742000Y-115965785D02*
X169690000Y-115965785D01*
X174755000Y-115885785D02*
X161745000Y-115885785D01*
X172684000Y-119765785D02*
X163816000Y-119765785D01*
X166810000Y-116565785D02*
X161886000Y-116565785D01*
X173603000Y-118725785D02*
X169690000Y-118725785D01*
X171173000Y-120805785D02*
X165327000Y-120805785D01*
X174795000Y-115564785D02*
X161705000Y-115564785D01*
X166810000Y-117925785D02*
X162409000Y-117925785D01*
X174728000Y-116045785D02*
X169690000Y-116045785D01*
X173294000Y-119125785D02*
X163206000Y-119125785D01*
X166810000Y-116605785D02*
X161897000Y-116605785D01*
X172727000Y-119725785D02*
X163773000Y-119725785D01*
X172595000Y-119845785D02*
X163905000Y-119845785D01*
X166810000Y-118205785D02*
X162562000Y-118205785D01*
X174777000Y-115725785D02*
X161723000Y-115725785D01*
X169744000Y-121325785D02*
X166756000Y-121325785D01*
X174482000Y-117005785D02*
X169690000Y-117005785D01*
X174228000Y-117645785D02*
X169690000Y-117645785D01*
X166810000Y-118245785D02*
X162586000Y-118245785D01*
X170048000Y-121245785D02*
X166452000Y-121245785D01*
X174810000Y-115404785D02*
X161690000Y-115404785D01*
X166810000Y-118045785D02*
X162472000Y-118045785D01*
X174624000Y-116525785D02*
X169690000Y-116525785D01*
X174818000Y-115284785D02*
X161682000Y-115284785D01*
X166810000Y-116805785D02*
X161954000Y-116805785D01*
X174348000Y-117365785D02*
X169690000Y-117365785D01*
X166810000Y-116765785D02*
X161942000Y-116765785D01*
X174246000Y-117605785D02*
X169690000Y-117605785D01*
X171865000Y-120405785D02*
X164635000Y-120405785D01*
X174829000Y-115004785D02*
X161671000Y-115004785D01*
X172256000Y-120125785D02*
X164244000Y-120125785D01*
X166810000Y-118565785D02*
X162787000Y-118565785D01*
X174603000Y-116605785D02*
X169690000Y-116605785D01*
X172640000Y-119805785D02*
X163860000Y-119805785D01*
X173192000Y-119245785D02*
X163308000Y-119245785D01*
X166810000Y-116925785D02*
X161992000Y-116925785D01*
X174830000Y-114964785D02*
X161670000Y-114964785D01*
X174112000Y-117885785D02*
X169690000Y-117885785D01*
X174830000Y-114884785D02*
X161670000Y-114884785D01*
X170829000Y-120965785D02*
X165671000Y-120965785D01*
X173914000Y-118245785D02*
X169690000Y-118245785D01*
X173545000Y-118805785D02*
X169690000Y-118805785D01*
X171008000Y-120885785D02*
X165492000Y-120885785D01*
X174644000Y-116445785D02*
X169690000Y-116445785D01*
X171741000Y-120485785D02*
X164759000Y-120485785D01*
X174281000Y-117525785D02*
X169690000Y-117525785D01*
X166810000Y-116885785D02*
X161979000Y-116885785D01*
X166810000Y-118085785D02*
X162494000Y-118085785D01*
X174698000Y-116205785D02*
X169690000Y-116205785D01*
X174152000Y-117805785D02*
X169690000Y-117805785D01*
X174028000Y-118045785D02*
X169690000Y-118045785D01*
X173360000Y-119045785D02*
X163140000Y-119045785D01*
X166810000Y-117045785D02*
X162032000Y-117045785D01*
X173157000Y-119285785D02*
X163343000Y-119285785D01*
X166810000Y-117125785D02*
X162060000Y-117125785D01*
X174264000Y-117565785D02*
X169690000Y-117565785D01*
X171252000Y-120765785D02*
X165248000Y-120765785D01*
X172549000Y-119885785D02*
X163951000Y-119885785D01*
X166810000Y-117765785D02*
X162329000Y-117765785D01*
X166810000Y-116125785D02*
X161787000Y-116125785D01*
X174672000Y-116325785D02*
X169690000Y-116325785D01*
X166810000Y-116965785D02*
X162005000Y-116965785D01*
X166810000Y-118805785D02*
X162955000Y-118805785D01*
X166810000Y-118525785D02*
X162760000Y-118525785D01*
X171543000Y-120605785D02*
X164957000Y-120605785D01*
X174799000Y-115524785D02*
X161701000Y-115524785D01*
X174634000Y-116485785D02*
X169690000Y-116485785D01*
X166810000Y-116045785D02*
X161772000Y-116045785D01*
X166810000Y-117445785D02*
X162185000Y-117445785D01*
X174807000Y-115444785D02*
X161693000Y-115444785D01*
X174209000Y-117685785D02*
X169690000Y-117685785D01*
X166810000Y-118165785D02*
X162539000Y-118165785D01*
X172358000Y-120045785D02*
X164142000Y-120045785D01*
X166810000Y-117525785D02*
X162219000Y-117525785D01*
X171983000Y-120325785D02*
X164517000Y-120325785D01*
X170635000Y-121045785D02*
X165865000Y-121045785D01*
X172811000Y-119645785D02*
X163689000Y-119645785D01*
X174581000Y-116685785D02*
X169690000Y-116685785D01*
X170181000Y-121205785D02*
X166319000Y-121205785D01*
X166810000Y-118325785D02*
X162633000Y-118325785D01*
X166810000Y-118125785D02*
X162517000Y-118125785D01*
X173392000Y-119005785D02*
X163108000Y-119005785D01*
X166810000Y-115965785D02*
X161758000Y-115965785D01*
X174823000Y-115204785D02*
X161677000Y-115204785D01*
X173084000Y-119365785D02*
X163416000Y-119365785D01*
X174713000Y-116125785D02*
X169690000Y-116125785D01*
X174521000Y-116885785D02*
X169690000Y-116885785D01*
X174380000Y-117285785D02*
X169690000Y-117285785D01*
X166810000Y-116325785D02*
X161828000Y-116325785D01*
X166810000Y-116285785D02*
X161819000Y-116285785D01*
X166810000Y-118005785D02*
X162451000Y-118005785D01*
X174299000Y-117485785D02*
X169690000Y-117485785D01*
X166810000Y-116165785D02*
X161794000Y-116165785D01*
X166810000Y-116245785D02*
X161811000Y-116245785D01*
X171328000Y-120725785D02*
X165172000Y-120725785D01*
X166810000Y-117645785D02*
X162272000Y-117645785D01*
X173961000Y-118165785D02*
X169690000Y-118165785D01*
X174829000Y-115044785D02*
X161671000Y-115044785D01*
X172932000Y-119525785D02*
X163568000Y-119525785D01*
X171925000Y-120365785D02*
X164575000Y-120365785D01*
X173766000Y-118485785D02*
X169690000Y-118485785D01*
X169565000Y-121365785D02*
X166935000Y-121365785D01*
X173010000Y-119445785D02*
X163490000Y-119445785D01*
X173686000Y-118605785D02*
X169690000Y-118605785D01*
X166810000Y-117245785D02*
X162104000Y-117245785D01*
X173867000Y-118325785D02*
X169690000Y-118325785D01*
X174411000Y-117205785D02*
X169690000Y-117205785D01*
X166810000Y-116005785D02*
X161765000Y-116005785D01*
X170734000Y-121005785D02*
X165766000Y-121005785D01*
X173515000Y-118845785D02*
X162985000Y-118845785D01*
X174830000Y-114924785D02*
X161670000Y-114924785D01*
X174132000Y-117845785D02*
X169690000Y-117845785D01*
X171402000Y-120685785D02*
X165098000Y-120685785D01*
X169357000Y-121405785D02*
X167143000Y-121405785D01*
X166810000Y-116405785D02*
X161846000Y-116405785D01*
X174748000Y-115925785D02*
X161752000Y-115925785D01*
X174681000Y-116285785D02*
X169690000Y-116285785D01*
X174735000Y-116005785D02*
X169690000Y-116005785D01*
X174558000Y-116765785D02*
X169690000Y-116765785D01*
X172615000Y-108450216D02*
X171315000Y-108450216D01*
X166810000Y-117285785D02*
X162120000Y-117285785D01*
X174825000Y-115164785D02*
X161675000Y-115164785D01*
X166810000Y-118605785D02*
X162814000Y-118605785D01*
X171611000Y-120565785D02*
X164889000Y-120565785D01*
X174049000Y-118005785D02*
X169690000Y-118005785D01*
X174761000Y-115845785D02*
X161739000Y-115845785D01*
X174570000Y-116725785D02*
X169690000Y-116725785D01*
X173455000Y-118925785D02*
X163045000Y-118925785D01*
X172040000Y-120285785D02*
X164460000Y-120285785D01*
X172096000Y-120245785D02*
X164404000Y-120245785D01*
X173817000Y-118405785D02*
X169690000Y-118405785D01*
X170421000Y-121125785D02*
X166079000Y-121125785D01*
X174190000Y-117725785D02*
X169690000Y-117725785D01*
X172852000Y-119605785D02*
X163648000Y-119605785D01*
X174827000Y-115084785D02*
X161673000Y-115084785D01*
X172503000Y-119925785D02*
X163997000Y-119925785D01*
X174654000Y-116405785D02*
X169690000Y-116405785D01*
X174546000Y-116805785D02*
X169690000Y-116805785D01*
X172769000Y-119685785D02*
X163731000Y-119685785D01*
X166810000Y-117405785D02*
X162168000Y-117405785D01*
X166810000Y-117805785D02*
X162348000Y-117805785D01*
X166810000Y-116845785D02*
X161966000Y-116845785D01*
X174091000Y-117925785D02*
X169690000Y-117925785D01*
X174495000Y-116965785D02*
X169690000Y-116965785D01*
X166810000Y-116485785D02*
X161866000Y-116485785D01*
X166810000Y-117725785D02*
X162310000Y-117725785D01*
X172150000Y-120205785D02*
X164350000Y-120205785D01*
X174816000Y-115324785D02*
X161684000Y-115324785D01*
X174663000Y-116365785D02*
X169690000Y-116365785D01*
X174364000Y-117325785D02*
X169690000Y-117325785D01*
X166810000Y-118685785D02*
X162869000Y-118685785D01*
X173047000Y-119405785D02*
X163453000Y-119405785D01*
X173424000Y-118965785D02*
X163076000Y-118965785D01*
X172971000Y-119485785D02*
X163529000Y-119485785D01*
X170531000Y-121085785D02*
X165969000Y-121085785D01*
X166810000Y-117845785D02*
X162368000Y-117845785D01*
X172893000Y-119565785D02*
X163607000Y-119565785D01*
X166810000Y-116685785D02*
X161919000Y-116685785D01*
X174332000Y-117405785D02*
X169690000Y-117405785D01*
X174508000Y-116925785D02*
X169690000Y-116925785D01*
X166810000Y-117085785D02*
X162046000Y-117085785D01*
X173328000Y-119085785D02*
X163172000Y-119085785D01*
X174468000Y-117045785D02*
X169690000Y-117045785D01*
X174813000Y-115364785D02*
X161687000Y-115364785D01*
X172204000Y-120165785D02*
X164296000Y-120165785D01*
X166810000Y-118645785D02*
X162841000Y-118645785D01*
X174803000Y-115484785D02*
X161697000Y-115484785D01*
X174706000Y-116165785D02*
X169690000Y-116165785D01*
X174787000Y-115645785D02*
X161713000Y-115645785D01*
X166810000Y-118725785D02*
X162897000Y-118725785D01*
X166810000Y-117605785D02*
X162254000Y-117605785D01*
X169100000Y-121445785D02*
X167400000Y-121445785D01*
X174440000Y-117125785D02*
X169690000Y-117125785D01*
X166810000Y-117685785D02*
X162291000Y-117685785D01*
X171677000Y-120525785D02*
X164823000Y-120525785D01*
X166810000Y-117885785D02*
X162388000Y-117885785D01*
X166810000Y-118765785D02*
X162926000Y-118765785D01*
X171092000Y-120845785D02*
X165408000Y-120845785D01*
X174315000Y-117445785D02*
X169690000Y-117445785D01*
X174870000Y-114884785D02*
G75*
G03*
X174870000Y-114884785I-6620000J0D01*
G01*
%TO.C,C3*%
X147409421Y-117489998D02*
X147690581Y-117489998D01*
X147409421Y-116469998D02*
X147690581Y-116469998D01*
%TO.C,R1*%
X147262738Y-114497976D02*
X147737254Y-114497976D01*
X147262738Y-113452976D02*
X147737254Y-113452976D01*
%TO.C,L1*%
X148894522Y-111985475D02*
X148154522Y-111985475D01*
X148154522Y-107965475D02*
X148894522Y-107965475D01*
%TO.C,C4*%
X151290001Y-110089418D02*
X151290001Y-110370578D01*
X152310001Y-110089418D02*
X152310001Y-110370578D01*
%TO.C,R2*%
X144262741Y-114952976D02*
X144737257Y-114952976D01*
X144262741Y-115997976D02*
X144737257Y-115997976D01*
%TO.C,U1*%
X150864998Y-116309995D02*
X150389998Y-116309995D01*
X150864998Y-113089995D02*
X150389998Y-113089995D01*
X153609998Y-116309995D02*
X153609998Y-115834995D01*
X153134998Y-116309995D02*
X153609998Y-116309995D01*
X153134998Y-113089995D02*
X153609998Y-113089995D01*
X150389998Y-116309995D02*
X150389998Y-115834995D01*
X153609998Y-113089995D02*
X153609998Y-113564995D01*
%TO.C,R6*%
X154527501Y-118742740D02*
X154527501Y-119217256D01*
X155572501Y-118742740D02*
X155572501Y-119217256D01*
%TO.C,JP1*%
X157524999Y-120349995D02*
X156924999Y-120349995D01*
X156924999Y-117549995D02*
X157524999Y-117549995D01*
X158224999Y-118249995D02*
X158224999Y-119649995D01*
X156224999Y-119649995D02*
X156224999Y-118249995D01*
X156224999Y-119649995D02*
G75*
G03*
X156924999Y-120349995I700000J0D01*
G01*
X156924999Y-117549995D02*
G75*
G03*
X156224999Y-118249995I-1J-699999D01*
G01*
X158224999Y-118249995D02*
G75*
G03*
X157524999Y-117549995I-699999J1D01*
G01*
X157524999Y-120349995D02*
G75*
G03*
X158224999Y-119649995I0J700000D01*
G01*
%TO.C,R4*%
X150312743Y-117957498D02*
X150787259Y-117957498D01*
X150312743Y-119002498D02*
X150787259Y-119002498D01*
%TO.C,JP2*%
X157424520Y-113425477D02*
X156024520Y-113425477D01*
X156024520Y-111425477D02*
X157424520Y-111425477D01*
X155324520Y-112725477D02*
X155324520Y-112125477D01*
X158124520Y-112125477D02*
X158124520Y-112725477D01*
X155324520Y-112725477D02*
G75*
G03*
X156024520Y-113425477I700000J0D01*
G01*
X156024520Y-111425477D02*
G75*
G03*
X155324520Y-112125477I0J-700000D01*
G01*
X158124520Y-112125477D02*
G75*
G03*
X157424520Y-111425477I-699999J1D01*
G01*
X157424520Y-113425477D02*
G75*
G03*
X158124520Y-112725477I1J699999D01*
G01*
%TD*%
%LPC*%
D13*
%TO.C,TP1*%
X160000000Y-113450000D03*
%TD*%
D14*
%TO.C,SC1*%
X148500000Y-102700000D03*
X169500000Y-102700000D03*
%TD*%
D15*
%TO.C,R10*%
X155975001Y-115979998D03*
X157625001Y-115979998D03*
%TD*%
D16*
%TO.C,R9*%
X155975001Y-114479998D03*
X157625001Y-114479998D03*
%TD*%
%TO.C,R8*%
X156125001Y-121229998D03*
X154475001Y-121229998D03*
%TD*%
D17*
%TO.C,R7*%
X153300001Y-118154998D03*
X153300001Y-119804998D03*
%TD*%
D15*
%TO.C,R5*%
X149725001Y-119979998D03*
X151375001Y-119979998D03*
%TD*%
%TO.C,R3*%
X146725001Y-115479998D03*
X148375001Y-115479998D03*
%TD*%
D18*
%TO.C,C5*%
X153550001Y-111179998D03*
X153550001Y-109279998D03*
%TD*%
D19*
%TO.C,C2*%
X143775001Y-113979998D03*
X145325001Y-113979998D03*
%TD*%
D20*
%TO.C,C1*%
X168250000Y-112384785D03*
D21*
X168250000Y-117384785D03*
%TD*%
D19*
%TO.C,C3*%
X146775001Y-116979998D03*
X148325001Y-116979998D03*
%TD*%
D15*
%TO.C,R1*%
X146674996Y-113975476D03*
X148324996Y-113975476D03*
%TD*%
D22*
%TO.C,L1*%
X146774522Y-109975475D03*
D23*
X150274522Y-109975475D03*
%TD*%
D24*
%TO.C,C4*%
X151800001Y-109454998D03*
X151800001Y-111004998D03*
%TD*%
D15*
%TO.C,R2*%
X143674999Y-115475476D03*
X145324999Y-115475476D03*
%TD*%
D25*
%TO.C,U1*%
X150537498Y-113949995D03*
X150537498Y-114449995D03*
X150537498Y-114949995D03*
X150537498Y-115449995D03*
D26*
X151249998Y-116162495D03*
X151749998Y-116162495D03*
X152249998Y-116162495D03*
X152749998Y-116162495D03*
D25*
X153462498Y-115449995D03*
X153462498Y-114949995D03*
X153462498Y-114449995D03*
X153462498Y-113949995D03*
D26*
X152749998Y-113237495D03*
X152249998Y-113237495D03*
X151749998Y-113237495D03*
X151249998Y-113237495D03*
D27*
X151999998Y-114699995D03*
%TD*%
D17*
%TO.C,R6*%
X155050001Y-118154998D03*
X155050001Y-119804998D03*
%TD*%
D28*
%TO.C,JP1*%
X157224999Y-118299995D03*
D29*
X157224999Y-119599995D03*
%TD*%
D15*
%TO.C,R4*%
X149725001Y-118479998D03*
X151375001Y-118479998D03*
%TD*%
D30*
%TO.C,JP2*%
X157374520Y-112425477D03*
D31*
X156074520Y-112425477D03*
%TD*%
M02*
